<mxfile host="65bd71144e">
    <diagram id="3U0mNpVZyYTiWy01vJRl" name="Page-1">
        <mxGraphModel dx="792" dy="445" grid="1" gridSize="10" guides="1" tooltips="1" connect="1" arrows="1" fold="1" page="0" pageScale="1" pageWidth="3300" pageHeight="4681" math="0" shadow="0">
            <root>
                <mxCell id="0"/>
                <mxCell id="1" parent="0"/>
                <mxCell id="2" value="cliente" style="whiteSpace=wrap;html=1;" vertex="1" parent="1">
                    <mxGeometry x="160" y="230" width="120" height="60" as="geometry"/>
                </mxCell>
                <mxCell id="3" value="&lt;div style=&quot;font-size: 12px;&quot;&gt;&lt;span style=&quot;font-size: 12px;&quot;&gt;&lt;span style=&quot;font-size: 12px;&quot;&gt;&lt;font color=&quot;#ffffff&quot;&gt;CF&lt;/font&gt;&lt;/span&gt;&lt;/span&gt;&lt;/div&gt;" style="ellipse;whiteSpace=wrap;html=1;labelPosition=right;verticalLabelPosition=middle;align=left;verticalAlign=middle;labelBackgroundColor=default;fillColor=#000000;spacingLeft=2;fontSize=12;aspect=fixed;snapToPoint=1;fontColor=#222222;allowArrows=1;" vertex="1" parent="1">
                    <mxGeometry x="185" y="170" width="10" height="10" as="geometry"/>
                </mxCell>
                <mxCell id="4" value="&lt;div style=&quot;font-size: 12px;&quot;&gt;&lt;span style=&quot;font-size: 12px;&quot;&gt;&lt;span style=&quot;font-size: 12px;&quot;&gt;&lt;font color=&quot;#ffffff&quot;&gt;nome&lt;/font&gt;&lt;/span&gt;&lt;/span&gt;&lt;/div&gt;" style="ellipse;whiteSpace=wrap;html=1;labelPosition=right;verticalLabelPosition=middle;align=left;verticalAlign=middle;labelBackgroundColor=default;fillColor=none;spacingLeft=2;fontSize=12;strokeWidth=2;snapToPoint=1;fontColor=#222222;allowArrows=1;" vertex="1" parent="1">
                    <mxGeometry x="215" y="190" width="10" height="10" as="geometry"/>
                </mxCell>
                <mxCell id="5" value="&lt;div style=&quot;font-size: 12px;&quot;&gt;&lt;span style=&quot;font-size: 12px;&quot;&gt;&lt;span style=&quot;font-size: 12px;&quot;&gt;&lt;font color=&quot;#ffffff&quot;&gt;indirizzo&lt;/font&gt;&lt;/span&gt;&lt;/span&gt;&lt;/div&gt;" style="ellipse;whiteSpace=wrap;html=1;labelPosition=right;verticalLabelPosition=middle;align=left;verticalAlign=middle;labelBackgroundColor=default;fillColor=none;spacingLeft=2;fontSize=12;strokeWidth=2;snapToPoint=1;fontColor=#222222;allowArrows=1;" vertex="1" parent="1">
                    <mxGeometry x="245" y="210" width="10" height="10" as="geometry"/>
                </mxCell>
                <mxCell id="6" value="" style="endArrow=none;html=1;fontColor=#FFFFFF;entryX=0.25;entryY=0;entryDx=0;entryDy=0;exitX=0.5;exitY=1;exitDx=0;exitDy=0;" edge="1" parent="1" source="3" target="2">
                    <mxGeometry width="50" height="50" relative="1" as="geometry">
                        <mxPoint x="90" y="250" as="sourcePoint"/>
                        <mxPoint x="190" y="220" as="targetPoint"/>
                    </mxGeometry>
                </mxCell>
                <mxCell id="7" value="" style="endArrow=none;html=1;fontColor=#FFFFFF;entryX=0.5;entryY=1;entryDx=0;entryDy=0;exitX=0.5;exitY=0;exitDx=0;exitDy=0;" edge="1" parent="1" source="2" target="4">
                    <mxGeometry width="50" height="50" relative="1" as="geometry">
                        <mxPoint x="80" y="280" as="sourcePoint"/>
                        <mxPoint x="130" y="230" as="targetPoint"/>
                    </mxGeometry>
                </mxCell>
                <mxCell id="8" value="" style="endArrow=none;html=1;fontColor=#FFFFFF;entryX=0.5;entryY=1;entryDx=0;entryDy=0;exitX=0.75;exitY=0;exitDx=0;exitDy=0;" edge="1" parent="1" source="2" target="5">
                    <mxGeometry width="50" height="50" relative="1" as="geometry">
                        <mxPoint x="110" y="270" as="sourcePoint"/>
                        <mxPoint x="160" y="220" as="targetPoint"/>
                    </mxGeometry>
                </mxCell>
                <mxCell id="9" value="auto" style="whiteSpace=wrap;html=1;fontColor=#FFFFFF;" vertex="1" parent="1">
                    <mxGeometry x="520" y="230" width="120" height="60" as="geometry"/>
                </mxCell>
                <mxCell id="10" value="&lt;div style=&quot;font-size: 12px;&quot;&gt;&lt;span style=&quot;font-size: 12px;&quot;&gt;&lt;span style=&quot;font-size: 12px;&quot;&gt;&lt;font color=&quot;#ffffff&quot;&gt;targa&lt;/font&gt;&lt;/span&gt;&lt;/span&gt;&lt;/div&gt;" style="ellipse;whiteSpace=wrap;html=1;labelPosition=right;verticalLabelPosition=middle;align=left;verticalAlign=middle;labelBackgroundColor=default;fillColor=#000000;spacingLeft=2;fontSize=12;aspect=fixed;snapToPoint=1;fontColor=#222222;allowArrows=1;" vertex="1" parent="1">
                    <mxGeometry x="545" y="190" width="10" height="10" as="geometry"/>
                </mxCell>
                <mxCell id="12" value="&lt;div style=&quot;font-size: 12px;&quot;&gt;&lt;span style=&quot;font-size: 12px;&quot;&gt;&lt;span style=&quot;font-size: 12px;&quot;&gt;&lt;font color=&quot;#ffffff&quot;&gt;modello&lt;/font&gt;&lt;/span&gt;&lt;/span&gt;&lt;/div&gt;" style="ellipse;whiteSpace=wrap;html=1;labelPosition=right;verticalLabelPosition=middle;align=left;verticalAlign=middle;labelBackgroundColor=default;fillColor=none;spacingLeft=2;fontSize=12;strokeWidth=2;snapToPoint=1;fontColor=#222222;allowArrows=1;" vertex="1" parent="1">
                    <mxGeometry x="575" y="210" width="10" height="10" as="geometry"/>
                </mxCell>
                <mxCell id="13" value="" style="endArrow=none;html=1;fontColor=#FFFFFF;entryX=0.5;entryY=1;entryDx=0;entryDy=0;exitX=0.25;exitY=0;exitDx=0;exitDy=0;" edge="1" parent="1" source="9" target="10">
                    <mxGeometry width="50" height="50" relative="1" as="geometry">
                        <mxPoint x="400" y="350" as="sourcePoint"/>
                        <mxPoint x="450" y="300" as="targetPoint"/>
                    </mxGeometry>
                </mxCell>
                <mxCell id="14" value="" style="endArrow=none;html=1;fontColor=#FFFFFF;entryX=0.5;entryY=1;entryDx=0;entryDy=0;exitX=0.5;exitY=0;exitDx=0;exitDy=0;" edge="1" parent="1" source="9" target="12">
                    <mxGeometry width="50" height="50" relative="1" as="geometry">
                        <mxPoint x="370" y="350" as="sourcePoint"/>
                        <mxPoint x="420" y="300" as="targetPoint"/>
                        <Array as="points">
                            <mxPoint x="580" y="220"/>
                        </Array>
                    </mxGeometry>
                </mxCell>
                <mxCell id="15" value="incidente" style="whiteSpace=wrap;html=1;fontColor=#FFFFFF;" vertex="1" parent="1">
                    <mxGeometry x="520" y="470" width="120" height="60" as="geometry"/>
                </mxCell>
                <mxCell id="16" value="&lt;font color=&quot;#ffffff&quot;&gt;coninvolge&lt;/font&gt;" style="rhombus;whiteSpace=wrap;html=1;fontSize=12;fontColor=#222222;fillColor=none;snapToPoint=1;" vertex="1" parent="1">
                    <mxGeometry x="540" y="350" width="80" height="60" as="geometry"/>
                </mxCell>
                <mxCell id="17" value="" style="endArrow=none;html=1;fontColor=#FFFFFF;entryX=0.5;entryY=1;entryDx=0;entryDy=0;exitX=0.5;exitY=0;exitDx=0;exitDy=0;" edge="1" parent="1" source="36" target="16">
                    <mxGeometry width="50" height="50" relative="1" as="geometry">
                        <mxPoint x="350" y="520" as="sourcePoint"/>
                        <mxPoint x="400" y="470" as="targetPoint"/>
                    </mxGeometry>
                </mxCell>
                <mxCell id="48" value="0:N" style="edgeLabel;html=1;align=center;verticalAlign=middle;resizable=0;points=[];fontColor=#FFFFFF;" vertex="1" connectable="0" parent="17">
                    <mxGeometry x="-0.256" y="1" relative="1" as="geometry">
                        <mxPoint as="offset"/>
                    </mxGeometry>
                </mxCell>
                <mxCell id="18" value="" style="endArrow=none;html=1;fontColor=#FFFFFF;entryX=0.5;entryY=1;entryDx=0;entryDy=0;exitX=0.5;exitY=0;exitDx=0;exitDy=0;" edge="1" parent="1" source="16" target="9">
                    <mxGeometry width="50" height="50" relative="1" as="geometry">
                        <mxPoint x="430" y="490" as="sourcePoint"/>
                        <mxPoint x="480" y="440" as="targetPoint"/>
                    </mxGeometry>
                </mxCell>
                <mxCell id="49" value="1" style="edgeLabel;html=1;align=center;verticalAlign=middle;resizable=0;points=[];fontColor=#FFFFFF;" vertex="1" connectable="0" parent="18">
                    <mxGeometry x="0.4333" y="-1" relative="1" as="geometry">
                        <mxPoint as="offset"/>
                    </mxGeometry>
                </mxCell>
                <mxCell id="19" value="&lt;font color=&quot;#ffffff&quot;&gt;possiede&lt;/font&gt;" style="rhombus;whiteSpace=wrap;html=1;fontSize=12;fontColor=#222222;fillColor=none;snapToPoint=1;" vertex="1" parent="1">
                    <mxGeometry x="360" y="235" width="80" height="50" as="geometry"/>
                </mxCell>
                <mxCell id="20" value="" style="endArrow=none;html=1;fontColor=#FFFFFF;entryX=0;entryY=0.5;entryDx=0;entryDy=0;exitX=1;exitY=0.5;exitDx=0;exitDy=0;" edge="1" parent="1" source="2" target="19">
                    <mxGeometry width="50" height="50" relative="1" as="geometry">
                        <mxPoint x="190" y="380" as="sourcePoint"/>
                        <mxPoint x="240" y="330" as="targetPoint"/>
                    </mxGeometry>
                </mxCell>
                <mxCell id="22" value="1" style="edgeLabel;html=1;align=center;verticalAlign=middle;resizable=0;points=[];fontColor=#FFFFFF;" vertex="1" connectable="0" parent="20">
                    <mxGeometry x="-0.5119" relative="1" as="geometry">
                        <mxPoint as="offset"/>
                    </mxGeometry>
                </mxCell>
                <mxCell id="21" value="" style="endArrow=none;html=1;fontColor=#FFFFFF;entryX=0;entryY=0.5;entryDx=0;entryDy=0;exitX=1;exitY=0.5;exitDx=0;exitDy=0;" edge="1" parent="1" source="19" target="9">
                    <mxGeometry width="50" height="50" relative="1" as="geometry">
                        <mxPoint x="240" y="380" as="sourcePoint"/>
                        <mxPoint x="290" y="330" as="targetPoint"/>
                    </mxGeometry>
                </mxCell>
                <mxCell id="23" value="1:N" style="edgeLabel;html=1;align=center;verticalAlign=middle;resizable=0;points=[];fontColor=#FFFFFF;" vertex="1" connectable="0" parent="21">
                    <mxGeometry x="0.5238" y="-2" relative="1" as="geometry">
                        <mxPoint y="-2" as="offset"/>
                    </mxGeometry>
                </mxCell>
                <mxCell id="25" value="&lt;div style=&quot;font-size: 12px&quot;&gt;&lt;br&gt;&lt;/div&gt;" style="ellipse;whiteSpace=wrap;html=1;labelPosition=right;verticalLabelPosition=middle;align=left;verticalAlign=middle;labelBackgroundColor=default;fillColor=#000000;spacingLeft=2;fontSize=12;aspect=fixed;snapToPoint=1;fontColor=#FF0000;fontFamily=Helvetica;strokeColor=default;rotation=-180;" vertex="1" parent="1">
                    <mxGeometry x="645" y="524" width="10" height="10" as="geometry"/>
                </mxCell>
                <mxCell id="27" value="&lt;div style=&quot;font-size: 12px&quot;&gt;&lt;br&gt;&lt;/div&gt;" style="ellipse;whiteSpace=wrap;html=1;labelPosition=right;verticalLabelPosition=middle;align=left;verticalAlign=middle;spacingLeft=2;fontSize=12;aspect=fixed;snapToPoint=1;fillColor=#000000;fontColor=#222222;fontFamily=Helvetica;strokeColor=default;labelBackgroundColor=#18141D;rotation=-180;" vertex="1" parent="1">
                    <mxGeometry x="648" y="498" width="4" height="4" as="geometry"/>
                </mxCell>
                <mxCell id="29" value="&lt;div style=&quot;font-size: 12px&quot;&gt;&lt;br&gt;&lt;/div&gt;" style="ellipse;whiteSpace=wrap;html=1;labelPosition=right;verticalLabelPosition=middle;align=left;verticalAlign=middle;spacingLeft=2;fontSize=12;aspect=fixed;snapToPoint=1;fillColor=#000000;fontFamily=Helvetica;fontColor=#222222;strokeColor=default;labelBackgroundColor=#18141D;rotation=-180;" vertex="1" parent="1">
                    <mxGeometry x="508" y="498" width="4" height="4" as="geometry"/>
                </mxCell>
                <mxCell id="33" value="" style="endArrow=none;html=1;fontColor=#FFFFFF;entryX=0.5;entryY=0;entryDx=0;entryDy=0;exitX=0.5;exitY=1;exitDx=0;exitDy=0;" edge="1" parent="1" source="25" target="27">
                    <mxGeometry width="50" height="50" relative="1" as="geometry">
                        <mxPoint x="480" y="540" as="sourcePoint"/>
                        <mxPoint x="530" y="490" as="targetPoint"/>
                    </mxGeometry>
                </mxCell>
                <mxCell id="34" value="" style="endArrow=none;html=1;fontColor=#FFFFFF;exitX=0.5;exitY=0;exitDx=0;exitDy=0;" edge="1" parent="1" source="29">
                    <mxGeometry width="50" height="50" relative="1" as="geometry">
                        <mxPoint x="510" y="510" as="sourcePoint"/>
                        <mxPoint x="510" y="520" as="targetPoint"/>
                    </mxGeometry>
                </mxCell>
                <mxCell id="36" value="&lt;div style=&quot;font-size: 12px&quot;&gt;&lt;br&gt;&lt;/div&gt;" style="ellipse;whiteSpace=wrap;html=1;labelPosition=right;verticalLabelPosition=middle;align=left;verticalAlign=middle;spacingLeft=2;fontSize=12;aspect=fixed;snapToPoint=1;fillColor=#000000;labelBackgroundColor=#18141D;fontColor=#FFFFFF;" vertex="1" parent="1">
                    <mxGeometry x="578" y="458" width="4" height="4" as="geometry"/>
                </mxCell>
                <mxCell id="37" value="" style="endArrow=none;html=1;fontColor=#FFFFFF;exitX=0.5;exitY=1;exitDx=0;exitDy=0;entryX=0;entryY=0.5;entryDx=0;entryDy=0;" edge="1" parent="1" source="29" target="36">
                    <mxGeometry width="50" height="50" relative="1" as="geometry">
                        <mxPoint x="480" y="510" as="sourcePoint"/>
                        <mxPoint x="530" y="460" as="targetPoint"/>
                        <Array as="points">
                            <mxPoint x="510" y="460"/>
                        </Array>
                    </mxGeometry>
                </mxCell>
                <mxCell id="38" value="" style="endArrow=none;html=1;fontColor=#FFFFFF;entryX=1;entryY=0.5;entryDx=0;entryDy=0;exitX=0.5;exitY=1;exitDx=0;exitDy=0;" edge="1" parent="1" source="27" target="36">
                    <mxGeometry width="50" height="50" relative="1" as="geometry">
                        <mxPoint x="600" y="500" as="sourcePoint"/>
                        <mxPoint x="650" y="450" as="targetPoint"/>
                        <Array as="points">
                            <mxPoint x="650" y="460"/>
                        </Array>
                    </mxGeometry>
                </mxCell>
                <mxCell id="39" value="&lt;div style=&quot;font-size: 12px;&quot;&gt;&lt;span style=&quot;font-size: 12px;&quot;&gt;&lt;span style=&quot;font-size: 12px;&quot;&gt;&lt;font color=&quot;#ffffff&quot;&gt;danno&lt;/font&gt;&lt;/span&gt;&lt;/span&gt;&lt;/div&gt;" style="ellipse;whiteSpace=wrap;html=1;labelPosition=right;verticalLabelPosition=middle;align=left;verticalAlign=middle;labelBackgroundColor=default;fillColor=none;spacingLeft=2;fontSize=12;strokeWidth=2;snapToPoint=1;fontColor=#222222;allowArrows=1;" vertex="1" parent="1">
                    <mxGeometry x="660" y="495" width="10" height="10" as="geometry"/>
                </mxCell>
                <mxCell id="42" value="&lt;div style=&quot;font-size: 12px&quot;&gt;&lt;span style=&quot;font-size: 12px&quot;&gt;&lt;span style=&quot;font-size: 12px&quot;&gt;&lt;font color=&quot;#ffffff&quot;&gt;colpa&lt;/font&gt;&lt;/span&gt;&lt;/span&gt;&lt;/div&gt;" style="ellipse;whiteSpace=wrap;html=1;labelPosition=lrft;verticalLabelPosition=middle;align=right;verticalAlign=middle;labelBackgroundColor=default;fillColor=none;spacingLeft=0;fontSize=12;strokeWidth=2;snapToPoint=1;spacingRight=12;fontColor=#222222;allowArrows=1;spacing=2;" vertex="1" parent="1">
                    <mxGeometry x="490" y="495" width="10" height="10" as="geometry"/>
                </mxCell>
                <mxCell id="43" value="" style="endArrow=none;html=1;fontColor=#FFFFFF;entryX=1;entryY=0.5;entryDx=0;entryDy=0;exitX=1;exitY=0.5;exitDx=0;exitDy=0;" edge="1" parent="1" source="42" target="29">
                    <mxGeometry width="50" height="50" relative="1" as="geometry">
                        <mxPoint x="330" y="540" as="sourcePoint"/>
                        <mxPoint x="490" y="520" as="targetPoint"/>
                    </mxGeometry>
                </mxCell>
                <mxCell id="44" value="" style="endArrow=none;html=1;fontColor=#FFFFFF;entryX=0;entryY=0.5;entryDx=0;entryDy=0;exitX=0;exitY=0.5;exitDx=0;exitDy=0;" edge="1" parent="1" source="27" target="39">
                    <mxGeometry width="50" height="50" relative="1" as="geometry">
                        <mxPoint x="340" y="600" as="sourcePoint"/>
                        <mxPoint x="390" y="550" as="targetPoint"/>
                    </mxGeometry>
                </mxCell>
                <mxCell id="45" value="" style="endArrow=none;html=1;fontColor=#FFFFFF;entryX=1;entryY=0.5;entryDx=0;entryDy=0;exitX=1;exitY=0.5;exitDx=0;exitDy=0;" edge="1" parent="1" source="15" target="27">
                    <mxGeometry width="50" height="50" relative="1" as="geometry">
                        <mxPoint x="590" y="530" as="sourcePoint"/>
                        <mxPoint x="640" y="480" as="targetPoint"/>
                    </mxGeometry>
                </mxCell>
                <mxCell id="46" value="" style="endArrow=none;html=1;fontColor=#FFFFFF;entryX=0.5;entryY=1;entryDx=0;entryDy=0;exitX=0.5;exitY=0;exitDx=0;exitDy=0;" edge="1" parent="1" source="15" target="36">
                    <mxGeometry width="50" height="50" relative="1" as="geometry">
                        <mxPoint x="560" y="510" as="sourcePoint"/>
                        <mxPoint x="610" y="460" as="targetPoint"/>
                    </mxGeometry>
                </mxCell>
                <mxCell id="47" value="" style="endArrow=none;html=1;fontColor=#FFFFFF;entryX=0;entryY=0.5;entryDx=0;entryDy=0;exitX=0;exitY=0.5;exitDx=0;exitDy=0;" edge="1" parent="1" source="29" target="15">
                    <mxGeometry width="50" height="50" relative="1" as="geometry">
                        <mxPoint x="470" y="570" as="sourcePoint"/>
                        <mxPoint x="520" y="520" as="targetPoint"/>
                    </mxGeometry>
                </mxCell>
            </root>
        </mxGraphModel>
    </diagram>
</mxfile>